<svg width="283" height="44" viewBox="0 0 283 44" fill="none" xmlns="http://www.w3.org/2000/svg">
<path d="M72.7 36V14.58H89.65V36H85.12V18.36H77.23V36H72.7ZM114.494 25.26C114.494 27.48 114.124 29.42 113.384 31.08C112.664 32.72 111.554 34 110.054 34.92C108.554 35.84 106.634 36.3 104.294 36.3C101.974 36.3 100.054 35.84 98.5335 34.92C97.0335 34 95.9135 32.71 95.1735 31.05C94.4535 29.39 94.0935 27.45 94.0935 25.23C94.0935 23.01 94.4535 21.08 95.1735 19.44C95.9135 17.8 97.0335 16.53 98.5335 15.63C100.054 14.71 101.984 14.25 104.324 14.25C106.644 14.25 108.554 14.71 110.054 15.63C111.554 16.53 112.664 17.81 113.384 19.47C114.124 21.11 114.494 23.04 114.494 25.26ZM98.8635 25.26C98.8635 27.5 99.2935 29.27 100.154 30.57C101.014 31.85 102.394 32.49 104.294 32.49C106.234 32.49 107.624 31.85 108.464 30.57C109.304 29.27 109.724 27.5 109.724 25.26C109.724 23 109.304 21.23 108.464 19.95C107.624 18.67 106.244 18.03 104.324 18.03C102.404 18.03 101.014 18.67 100.154 19.95C99.2935 21.23 98.8635 23 98.8635 25.26ZM135.115 14.58V32.22H137.965V42.24H133.585V36H120.175V42.24H115.795V32.22H117.445C118.205 30.72 118.915 29.12 119.575 27.42C120.235 25.7 120.825 23.79 121.345 21.69C121.885 19.59 122.315 17.22 122.635 14.58H135.115ZM130.585 18.36H126.235C126.055 19.74 125.765 21.24 125.365 22.86C124.985 24.46 124.525 26.07 123.985 27.69C123.445 29.29 122.855 30.8 122.215 32.22H130.585V18.36ZM141.255 36V14.58H154.785V18.33H145.785V22.8H147.585C149.605 22.8 151.255 23.08 152.535 23.64C153.835 24.2 154.795 24.97 155.415 25.95C156.035 26.93 156.345 28.05 156.345 29.31C156.345 31.43 155.635 33.08 154.215 34.26C152.815 35.42 150.575 36 147.495 36H141.255ZM145.785 32.28H147.315C148.695 32.28 149.775 32.06 150.555 31.62C151.355 31.18 151.755 30.41 151.755 29.31C151.755 28.17 151.325 27.42 150.465 27.06C149.605 26.7 148.435 26.52 146.955 26.52H145.785V32.28ZM179.826 25.26C179.826 27.48 179.456 29.42 178.716 31.08C177.996 32.72 176.886 34 175.386 34.92C173.886 35.84 171.966 36.3 169.626 36.3C167.306 36.3 165.386 35.84 163.866 34.92C162.366 34 161.246 32.71 160.506 31.05C159.786 29.39 159.426 27.45 159.426 25.23C159.426 23.01 159.786 21.08 160.506 19.44C161.246 17.8 162.366 16.53 163.866 15.63C165.386 14.71 167.316 14.25 169.656 14.25C171.976 14.25 173.886 14.71 175.386 15.63C176.886 16.53 177.996 17.81 178.716 19.47C179.456 21.11 179.826 23.04 179.826 25.26ZM164.196 25.26C164.196 27.5 164.626 29.27 165.486 30.57C166.346 31.85 167.726 32.49 169.626 32.49C171.566 32.49 172.956 31.85 173.796 30.57C174.636 29.27 175.056 27.5 175.056 25.26C175.056 23 174.636 21.23 173.796 19.95C172.956 18.67 171.576 18.03 169.656 18.03C167.736 18.03 166.346 18.67 165.486 19.95C164.626 21.23 164.196 23 164.196 25.26ZM191.103 14.58C193.863 14.58 195.873 15.18 197.133 16.38C198.413 17.56 199.053 19.19 199.053 21.27C199.053 22.51 198.793 23.68 198.273 24.78C197.753 25.86 196.883 26.73 195.663 27.39C194.463 28.05 192.823 28.38 190.743 28.38H188.793V36H184.263V14.58H191.103ZM190.863 18.3H188.793V24.66H190.293C191.573 24.66 192.583 24.41 193.323 23.91C194.083 23.39 194.463 22.56 194.463 21.42C194.463 19.34 193.263 18.3 190.863 18.3ZM214.716 36L213.156 30.9H205.356L203.796 36H198.906L206.466 14.49H212.016L219.606 36H214.716ZM212.076 27.09L210.516 22.11C210.416 21.77 210.286 21.34 210.126 20.82C209.966 20.3 209.806 19.77 209.646 19.23C209.486 18.69 209.356 18.22 209.256 17.82C209.156 18.22 209.016 18.72 208.836 19.32C208.676 19.9 208.516 20.46 208.356 21C208.216 21.52 208.106 21.89 208.026 22.11L206.496 27.09H212.076ZM224.482 34.0957C224.482 33.2754 224.111 32.6602 223.369 32.25C223.057 32.0938 222.734 32.0156 222.402 32.0156C221.582 32.0156 220.977 32.3867 220.586 33.1289C220.43 33.4414 220.352 33.7637 220.352 34.0957C220.352 34.9355 220.723 35.541 221.465 35.9121C221.758 36.0684 222.07 36.1465 222.402 36.1465C223.242 36.1465 223.857 35.7949 224.248 35.0918C224.404 34.7793 224.482 34.4473 224.482 34.0957ZM245.465 36H240.935V26.76H232.445V36H227.915V14.58H232.445V22.98H240.935V14.58H245.465V36ZM263.184 36H250.854V14.58H263.184V18.3H255.384V23.01H262.644V26.73H255.384V32.25H263.184V36ZM275.891 36H271.361V18.36H265.541V14.58H281.711V18.36H275.891V36Z" fill="black"/>
<path d="M42.5491 17.7393C42.356 17.7393 42.1578 17.7671 41.9597 17.8215L39.7202 18.4384L37.395 12.7735C36.7361 11.1687 34.7887 9.86294 33.054 9.86294H11.2907C9.55582 9.86294 7.60868 11.1687 6.94995 12.7735L4.62765 18.4304L2.41587 17.8212C2.21794 17.7669 2.01979 17.7391 1.82671 17.7391C0.768155 17.7391 0 18.5478 0 19.6616V20.9817C0 22.282 1.05811 23.3401 2.35841 23.3401H2.61182L2.23644 24.2545C1.62438 25.745 1.12614 28.2694 1.12614 29.8814V41.1352C1.12614 42.4355 2.18426 43.4936 3.48455 43.4936H6.56466C7.86495 43.4936 8.92306 42.4355 8.92306 41.1352V38.325H35.4215V41.1352C35.4215 42.4355 36.4796 43.4936 37.7799 43.4936H40.8595C42.1598 43.4936 43.2179 42.4355 43.2179 41.1352V29.8817C43.2179 28.2698 42.7197 25.7454 42.1076 24.2547L41.7323 23.3403H42.0172C43.3175 23.3403 44.3756 22.2822 44.3756 20.9819V19.6618C44.3758 18.548 43.6074 17.7393 42.5491 17.7393ZM6.31829 22.0594L9.83609 13.491C10.2302 12.5311 11.4015 11.7456 12.4391 11.7456H31.9056C32.9433 11.7456 34.1146 12.5309 34.5087 13.491L38.0264 22.0594C38.4203 23.0193 37.8939 23.8049 36.8563 23.8049H7.48869C6.45083 23.8047 5.92442 23.0193 6.31829 22.0594ZM14.1709 32.8975C14.1709 33.4164 13.7462 33.8407 13.2277 33.8407H6.54528C6.02635 33.8407 5.60188 33.4162 5.60188 32.8975V29.6905C5.60188 29.1718 6.02635 28.7474 6.54528 28.7474H13.2277C13.7462 28.7474 14.1709 29.1718 14.1709 29.6905V32.8975ZM38.6795 32.8975C38.6795 33.4164 38.2548 33.8407 37.7363 33.8407H31.0538C30.5353 33.8407 30.1106 33.4162 30.1106 32.8975V29.6905C30.1106 29.1718 30.5353 28.7474 31.0538 28.7474H37.7363C38.2548 28.7474 38.6795 29.1718 38.6795 29.6905V32.8975Z" fill="#E95253"/>
<path d="M57.0502 0H45.8802C44.2536 0 42.9304 1.32341 42.9304 2.94977V14.1201C42.9304 15.7466 44.2538 17.0701 45.8802 17.0701H50.3643V42.1407C50.3643 42.7488 50.857 43.2415 51.4651 43.2415C52.0732 43.2415 52.5659 42.7488 52.5659 42.1407V17.0703H57.0502C58.6768 17.0703 60 15.7469 60 14.1203V2.94999C60 1.32341 58.6768 0 57.0502 0ZM54.5203 9.26168C53.8779 9.84005 52.9316 10.1333 51.7079 10.1333H50.0904C49.8962 10.1333 49.7381 10.2916 49.7381 10.4858V13.2134C49.7381 13.5098 49.4971 13.7506 49.2007 13.7506H47.9757C47.6792 13.7506 47.4383 13.5095 47.4383 13.2134V3.85751C47.4383 3.56095 47.6794 3.31987 47.9757 3.31987H51.0615C53.1058 3.31987 53.8689 3.62788 54.4959 4.16002C55.1573 4.72122 55.4924 5.58074 55.4924 6.71525C55.4921 7.82378 55.1654 8.68023 54.5203 9.26168Z" fill="#168DE1"/>
<path d="M52.7693 5.57875C52.4708 5.35331 51.9426 5.23882 51.1998 5.23882H50.0904C49.8962 5.23882 49.7381 5.3969 49.7381 5.59086V7.83258C49.7381 8.02654 49.8962 8.18462 50.0904 8.18462H50.755C50.9992 8.18462 51.3937 8.16657 51.6344 8.14433C51.868 8.12297 52.5274 8.02742 52.7693 7.84469C53.0597 7.62496 53.207 7.24496 53.207 6.71546C53.207 6.1809 53.0597 5.79848 52.7693 5.57875Z" fill="#168DE1"/>
</svg>
